<?xml version="1.0" encoding="UTF-8"?>
<svg width="17px" height="14px" viewBox="0 0 17 13" version="1.1" xmlns="http://www.w3.org/2000/svg" xmlns:xlink="http://www.w3.org/1999/xlink">
    <!-- Generator: Sketch 52.3 (67297) - http://www.bohemiancoding.com/sketch -->
    <title>Cuadrícula</title>
    <desc>Created with Sketch.</desc>
    <g id="Listado-de-ofertas-[LIST]" stroke="none" stroke-width="1" fill="none" fill-rule="evenodd">
        <g id="[Listado-de-ofertas]-List" transform="translate(-1689.000000, -197.000000)" fill="currentColor" fill-rule="nonzero">
            <g id="Group-8" transform="translate(1689.000000, 196.000000)">
                <path d="M0,7 L5,7 L5,1 L0,1 L0,7 Z M0,14 L5,14 L5,8 L0,8 L0,14 Z M6,14 L11,14 L11,8 L6,8 L6,14 Z M12,14 L17,14 L17,8 L12,8 L12,14 Z M6,7 L11,7 L11,1 L6,1 L6,7 Z M12,1 L12,7 L17,7 L17,1 L12,1 Z" id="Shape"></path>
            </g>
        </g>
    </g>
</svg>